<svg width="243" height="160" viewBox="0 0 243 160" fill="none" xmlns="http://www.w3.org/2000/svg">
<g clip-path="url(#clip0)">
<path d="M121.5 160C188.603 160 243 156.573 243 152.346C243 148.119 188.603 144.692 121.5 144.692C54.3974 144.692 0 148.119 0 152.346C0 156.573 54.3974 160 121.5 160Z" fill="#3A3B40"/>
<path d="M185.701 0C185.472 0.000241165 185.252 0.0916724 185.09 0.254228C184.929 0.416784 184.837 0.637185 184.837 0.867073V34.8551C184.837 35.085 184.929 35.3054 185.09 35.468C185.252 35.6305 185.472 35.722 185.701 35.7222H225.255C225.484 35.722 225.704 35.6305 225.866 35.468C226.028 35.3054 226.119 35.085 226.119 34.8551V0.867081C226.119 0.637194 226.028 0.416792 225.866 0.254236C225.704 0.0916808 225.484 0.000250211 225.255 8.32415e-06L185.701 0Z" fill="#3A3B40"/>
<path d="M191.187 20.4576C191.101 20.4751 191.024 20.5219 190.968 20.59C190.913 20.6581 190.883 20.7433 190.883 20.8312C190.883 20.919 190.913 21.0042 190.968 21.0723C191.024 21.1404 191.101 21.1872 191.187 21.2047H220.125C220.211 21.1872 220.288 21.1404 220.343 21.0723C220.399 21.0042 220.429 20.919 220.429 20.8312C220.429 20.7433 220.399 20.6581 220.343 20.59C220.288 20.5219 220.211 20.4751 220.125 20.4576H191.187Z" fill="white"/>
<path d="M190.831 24.8965C190.745 24.914 190.668 24.9608 190.613 25.0288C190.557 25.0969 190.527 25.1821 190.527 25.27C190.527 25.3579 190.557 25.4431 190.613 25.5112C190.668 25.5793 190.745 25.626 190.831 25.6436H219.769C219.855 25.626 219.932 25.5793 219.988 25.5112C220.043 25.4431 220.073 25.3579 220.073 25.27C220.073 25.1821 220.043 25.0969 219.988 25.0288C219.932 24.9608 219.855 24.914 219.769 24.8965H190.831Z" fill="white"/>
<path d="M191.187 29.3353C191.101 29.3528 191.024 29.3996 190.968 29.4677C190.913 29.5358 190.883 29.621 190.883 29.7089C190.883 29.7968 190.913 29.8819 190.968 29.95C191.024 30.0181 191.101 30.0649 191.187 30.0824H220.125C220.211 30.0649 220.288 30.0181 220.343 29.95C220.399 29.8819 220.429 29.7968 220.429 29.7089C220.429 29.621 220.399 29.5358 220.343 29.4677C220.288 29.3996 220.211 29.3528 220.125 29.3353H191.187Z" fill="white"/>
<path d="M191.187 5.63977C191.101 5.65733 191.024 5.70412 190.968 5.77221C190.913 5.8403 190.883 5.92552 190.883 6.01343C190.883 6.10135 190.913 6.18656 190.968 6.25465C191.024 6.32275 191.101 6.36953 191.187 6.3871H220.125C220.211 6.36953 220.288 6.32275 220.343 6.25465C220.399 6.18656 220.429 6.10135 220.429 6.01343C220.429 5.92552 220.399 5.8403 220.343 5.77221C220.288 5.70412 220.211 5.65733 220.125 5.63977H191.187Z" fill="white"/>
<path d="M190.831 10.0786C190.745 10.0962 190.668 10.143 190.613 10.2111C190.557 10.2792 190.527 10.3644 190.527 10.4523C190.527 10.5402 190.557 10.6254 190.613 10.6935C190.668 10.7616 190.745 10.8084 190.831 10.826H219.769C219.855 10.8084 219.932 10.7616 219.988 10.6935C220.043 10.6254 220.073 10.5402 220.073 10.4523C220.073 10.3644 220.043 10.2792 219.988 10.2111C219.932 10.143 219.855 10.0962 219.769 10.0786H190.831Z" fill="white"/>
<path d="M191.187 14.5175C191.101 14.535 191.024 14.5818 190.968 14.6499C190.913 14.718 190.883 14.8032 190.883 14.8911C190.883 14.9791 190.913 15.0643 190.968 15.1324C191.024 15.2005 191.101 15.2472 191.187 15.2648H220.125C220.211 15.2472 220.288 15.2005 220.343 15.1324C220.399 15.0643 220.429 14.9791 220.429 14.8911C220.429 14.8032 220.399 14.718 220.343 14.6499C220.288 14.5818 220.211 14.535 220.125 14.5175H191.187Z" fill="white"/>
<path d="M168.022 13.8986C167.792 13.8988 167.573 13.9902 167.411 14.1528C167.249 14.3153 167.158 14.5357 167.158 14.7656V48.7537C167.158 48.9836 167.249 49.204 167.411 49.3665C167.573 49.5291 167.792 49.6205 168.022 49.6208H207.575C207.805 49.6205 208.024 49.5291 208.186 49.3665C208.348 49.204 208.439 48.9836 208.439 48.7537V14.7656C208.439 14.5357 208.348 14.3153 208.186 14.1528C208.024 13.9902 207.805 13.8988 207.575 13.8986H168.022Z" fill="#599CFF"/>
<path d="M173.507 34.3562C173.421 34.3737 173.344 34.4205 173.289 34.4885C173.233 34.5566 173.203 34.6418 173.203 34.7297C173.203 34.8176 173.233 34.9028 173.289 34.9709C173.344 35.0389 173.421 35.0857 173.507 35.1032H202.446C202.531 35.0857 202.608 35.0389 202.664 34.9709C202.719 34.9028 202.75 34.8176 202.75 34.7297C202.75 34.6418 202.719 34.5566 202.664 34.4885C202.608 34.4205 202.531 34.3737 202.446 34.3562H173.507Z" fill="white"/>
<path d="M173.151 38.795C173.066 38.8126 172.989 38.8593 172.933 38.9274C172.878 38.9955 172.847 39.0807 172.847 39.1686C172.847 39.2565 172.878 39.3417 172.933 39.4097C172.989 39.4778 173.066 39.5246 173.151 39.5421H202.09C202.176 39.5246 202.253 39.4778 202.308 39.4097C202.364 39.3417 202.394 39.2565 202.394 39.1686C202.394 39.0807 202.364 38.9955 202.308 38.9274C202.253 38.8593 202.176 38.8126 202.09 38.795H173.151Z" fill="white"/>
<path d="M173.507 43.2339C173.421 43.2514 173.344 43.2982 173.289 43.3662C173.233 43.4343 173.203 43.5195 173.203 43.6074C173.203 43.6953 173.233 43.7805 173.289 43.8486C173.344 43.9167 173.421 43.9634 173.507 43.981H202.446C202.531 43.9634 202.608 43.9167 202.664 43.8486C202.719 43.7805 202.75 43.6953 202.75 43.6074C202.75 43.5195 202.719 43.4343 202.664 43.3662C202.608 43.2982 202.531 43.2514 202.446 43.2339H173.507Z" fill="white"/>
<path d="M173.507 19.5383C173.421 19.5559 173.344 19.6027 173.289 19.6708C173.233 19.7389 173.203 19.8241 173.203 19.912C173.203 19.9999 173.233 20.0851 173.289 20.1532C173.344 20.2213 173.421 20.2681 173.507 20.2857H202.446C202.531 20.2681 202.608 20.2213 202.664 20.1532C202.719 20.0851 202.75 19.9999 202.75 19.912C202.75 19.8241 202.719 19.7389 202.664 19.6708C202.608 19.6027 202.531 19.5559 202.446 19.5383H173.507Z" fill="white"/>
<path d="M173.151 23.9772C173.066 23.9947 172.989 24.0415 172.933 24.1096C172.878 24.1777 172.847 24.2629 172.847 24.3508C172.847 24.4388 172.878 24.524 172.933 24.5921C172.989 24.6602 173.066 24.7069 173.151 24.7245H202.09C202.176 24.7069 202.253 24.6602 202.308 24.5921C202.364 24.524 202.394 24.4388 202.394 24.3508C202.394 24.2629 202.364 24.1777 202.308 24.1096C202.253 24.0415 202.176 23.9947 202.09 23.9772H173.151Z" fill="white"/>
<path d="M173.507 28.416C173.421 28.4336 173.344 28.4804 173.289 28.5485C173.233 28.6166 173.203 28.7018 173.203 28.7897C173.203 28.8776 173.233 28.9628 173.289 29.0309C173.344 29.099 173.421 29.1458 173.507 29.1634H202.446C202.531 29.1458 202.608 29.099 202.664 29.0309C202.719 28.9628 202.75 28.8776 202.75 28.7897C202.75 28.7018 202.719 28.6166 202.664 28.5485C202.608 28.4804 202.531 28.4336 202.446 28.416H173.507Z" fill="white"/>
<path d="M223.898 140.688L224.106 144.642L228.459 144.225L228.045 140.272L223.898 140.688Z" fill="#FBBEBE"/>
<path d="M207.106 136.111L207.313 140.064L211.667 139.648L211.252 135.694L207.106 136.111Z" fill="#FBBEBE"/>
<path d="M226.904 86.9009L211.148 89.6059L210.112 118.32L205.965 136.631L212.6 139.544L219.026 121.441L221.307 105.42L222.965 121.441L223.173 141.625L233.331 141L230.903 101.477C230.59 96.3927 229.229 91.4291 226.904 86.9009V86.9009Z" fill="#2F2E41"/>
<path d="M224.52 143.185C224.52 143.185 223.069 141.521 223.069 142.145C223.069 142.769 222.24 148.803 222.24 148.803C222.24 148.803 227.837 150.468 227.837 151.508C227.837 152.549 235.923 154.213 235.715 152.132C235.508 150.052 228.459 142.145 228.459 142.145C228.459 142.145 225.557 141.729 224.52 143.185Z" fill="#2F2E41"/>
<path d="M207.98 138.633C207.98 138.633 207.538 136.466 207.231 137.008C206.923 137.551 203.231 142.386 203.231 142.386C203.231 142.386 207.277 146.609 206.765 147.514C206.253 148.418 212.462 153.876 213.306 151.964C214.151 150.052 211.917 139.682 211.917 139.682C211.917 139.682 209.598 137.881 207.98 138.633Z" fill="#2F2E41"/>
<path d="M207.662 63.9633L219.14 65.0648L222.965 54.6009L211.978 51.9442L207.662 63.9633Z" fill="#2F2E41"/>
<path d="M217.057 61.8278C220.263 61.8278 222.862 59.2194 222.862 56.0017C222.862 52.784 220.263 50.1756 217.057 50.1756C213.851 50.1756 211.252 52.784 211.252 56.0017C211.252 59.2194 213.851 61.8278 217.057 61.8278Z" fill="#FBBEBE"/>
<path d="M213.74 59.539C213.74 59.539 213.74 63.4924 210.63 65.157C207.52 66.8216 218.093 68.6943 218.093 68.6943L219.13 65.157C219.13 65.157 216.02 63.7005 218.715 60.3713L213.74 59.539Z" fill="#FBBEBE"/>
<path d="M218.715 64.1166C218.715 64.1166 214.918 66.4771 211.738 64.3605L210.423 64.1166L206.484 64.9489L204.618 72.0235L211.667 89.7099C211.667 89.7099 223.898 91.7907 226.386 87.213L224.935 68.4862L220.996 63.7005L218.715 64.1166Z" fill="#575A89"/>
<path d="M220.581 64.3247L227.423 54.7531L226.801 53.7128L217.886 49.1352V46.2221L231.776 49.9674L232.716 51.4622L224.52 69.3185L220.581 64.3247Z" fill="#575A89"/>
<path d="M206.898 65.1569L206.484 64.9488L196.118 64.5329L203.996 57.6662L201.508 54.5453L189.691 63.4925V65.5732L206.484 72.6476L206.898 65.1569Z" fill="#575A89"/>
<path d="M201.404 55.4815L202.856 54.6492C202.856 54.6492 205.965 50.4877 207.209 52.1523C208.453 53.8169 204.307 56.938 204.307 56.938L202.026 57.7703L201.404 55.4815Z" fill="#FBBEBE"/>
<path d="M218.508 46.8464L216.228 45.5979C216.228 45.5979 209.386 46.2222 210.215 47.6787C211.045 49.1352 215.813 47.8868 215.813 47.8868L218.508 48.7191V46.8464Z" fill="#FBBEBE"/>
<path d="M212.601 50.3786C212.601 50.3786 209.936 51.27 209.801 54.7907C209.787 55.3537 209.849 55.9161 209.986 56.4624C210.136 57.1006 210.232 58.4738 209.069 60.2684C208.291 61.4531 207.579 62.6811 206.939 63.9465L206.93 63.9632L209.857 64.3304L210.479 59.4617C210.781 57.1013 211.427 54.7983 212.397 52.6268L212.418 52.5815C212.418 52.5815 213.698 54.968 216.259 54.968L215.344 54.0501C215.344 54.0501 219.368 55.7023 220.831 55.7023C220.831 55.7023 221.929 56.4366 220.831 57.538C219.734 58.6395 217.539 61.2096 218.819 63.2289C220.1 65.2482 219.002 65.799 219.002 65.799L221.014 64.6975L221.929 64.1468V64.8811L226.684 64.3304C226.684 64.3304 227.965 64.1468 225.221 61.026C225.221 61.026 224.497 59.8141 224.814 58.7689C225.074 57.9745 225.143 57.1293 225.013 56.3031C224.399 52.8617 221.987 46.0197 212.601 50.3786Z" fill="#2F2E41"/>
<path d="M45.7546 53.7773C45.6113 53.7774 45.4738 53.8347 45.3724 53.9364C45.2711 54.0382 45.214 54.1761 45.2139 54.32V95.7849C45.214 95.9288 45.271 96.0668 45.3724 96.1685C45.4738 96.2703 45.6113 96.3275 45.7546 96.3276H140.062C140.206 96.3275 140.343 96.2703 140.445 96.1685C140.546 96.0668 140.603 95.9288 140.603 95.7849V54.32C140.603 54.1761 140.546 54.0382 140.445 53.9364C140.343 53.8347 140.206 53.7774 140.062 53.7773H45.7546Z" fill="#3A3B40"/>
<path d="M127.301 61.9577H58.5165C58.4312 61.9579 58.3466 61.9412 58.2677 61.9085C58.1889 61.8759 58.1172 61.8279 58.0568 61.7674C57.9964 61.7069 57.9485 61.6351 57.9158 61.556C57.8831 61.4769 57.8662 61.3921 57.8662 61.3064C57.8662 61.2208 57.8831 61.136 57.9158 61.0569C57.9485 60.9778 57.9964 60.9059 58.0568 60.8454C58.1172 60.785 58.1889 60.737 58.2677 60.7044C58.3466 60.6717 58.4312 60.655 58.5165 60.6552H127.301C127.472 60.6555 127.637 60.7243 127.759 60.8464C127.88 60.9685 127.948 61.1339 127.948 61.3064C127.948 61.4789 127.88 61.6444 127.759 61.7665C127.637 61.8886 127.472 61.9574 127.301 61.9577Z" fill="white"/>
<path d="M127.301 67.168H58.5165C58.3444 67.168 58.1793 67.0994 58.0576 66.9772C57.9359 66.8551 57.8676 66.6894 57.8676 66.5167C57.8676 66.344 57.9359 66.1783 58.0576 66.0562C58.1793 65.934 58.3444 65.8654 58.5165 65.8654H127.301C127.473 65.8654 127.638 65.934 127.759 66.0562C127.881 66.1783 127.949 66.344 127.949 66.5167C127.949 66.6894 127.881 66.8551 127.759 66.9772C127.638 67.0994 127.473 67.168 127.301 67.168Z" fill="white"/>
<path d="M127.301 72.3782H58.5165C58.4312 72.3784 58.3466 72.3617 58.2677 72.329C58.1889 72.2964 58.1172 72.2484 58.0568 72.1879C57.9964 72.1274 57.9485 72.0556 57.9158 71.9765C57.8831 71.8974 57.8662 71.8126 57.8662 71.7269C57.8662 71.6413 57.8831 71.5565 57.9158 71.4774C57.9485 71.3983 57.9964 71.3264 58.0568 71.2659C58.1172 71.2054 58.1889 71.1575 58.2677 71.1249C58.3466 71.0922 58.4312 71.0755 58.5165 71.0757H127.301C127.472 71.076 127.637 71.1448 127.759 71.2669C127.88 71.389 127.948 71.5544 127.948 71.7269C127.948 71.8994 127.88 72.0649 127.759 72.187C127.637 72.3091 127.472 72.3779 127.301 72.3782Z" fill="white"/>
<path d="M127.301 77.549H58.5165C58.3444 77.549 58.1793 77.4804 58.0576 77.3583C57.9359 77.2361 57.8676 77.0705 57.8676 76.8978C57.8676 76.725 57.9359 76.5594 58.0576 76.4372C58.1793 76.3151 58.3444 76.2465 58.5165 76.2465H127.301C127.473 76.2465 127.638 76.3151 127.759 76.4372C127.881 76.5594 127.949 76.725 127.949 76.8978C127.949 77.0705 127.881 77.2361 127.759 77.3583C127.638 77.4804 127.473 77.549 127.301 77.549Z" fill="white"/>
<path d="M127.301 82.7593H58.5165C58.4312 82.7595 58.3466 82.7427 58.2677 82.7101C58.1889 82.6774 58.1172 82.6295 58.0568 82.569C57.9964 82.5085 57.9485 82.4367 57.9158 82.3576C57.8831 82.2784 57.8662 82.1937 57.8662 82.108C57.8662 82.0224 57.8831 81.9376 57.9158 81.8585C57.9485 81.7794 57.9964 81.7075 58.0568 81.647C58.1172 81.5865 58.1889 81.5386 58.2677 81.5059C58.3466 81.4733 58.4312 81.4566 58.5165 81.4567H127.301C127.473 81.4567 127.638 81.5254 127.759 81.6475C127.881 81.7696 127.949 81.9353 127.949 82.108C127.949 82.2807 127.881 82.4464 127.759 82.5685C127.638 82.6907 127.473 82.7593 127.301 82.7593Z" fill="white"/>
<path d="M109.841 87.0948C109.792 87.0948 109.745 87.1144 109.71 87.1493C109.675 87.1842 109.656 87.2314 109.656 87.2807V92.2107C109.656 92.26 109.675 92.3073 109.71 92.3421C109.745 92.377 109.792 92.3966 109.841 92.3967H127.023C127.072 92.3966 127.12 92.377 127.154 92.3421C127.189 92.3073 127.209 92.26 127.209 92.2107V87.2807C127.209 87.2314 127.189 87.1842 127.154 87.1493C127.12 87.1144 127.072 87.0948 127.023 87.0948H109.841Z" fill="white"/>
<path d="M15.7204 96.2331C15.7204 96.2331 14.3018 113.353 13.9972 117.022C13.7883 119.321 13.2762 121.583 12.4742 123.747C12.1097 124.513 11.9025 125.345 11.865 126.193V141.784C11.865 141.784 10.6466 141.784 10.9512 143.007C11.2558 144.23 11.5604 146.37 11.5604 146.37H16.1293C16.1293 146.37 15.8247 145.453 16.7385 145.147C17.6523 144.841 16.7385 142.395 16.7385 142.395L21.612 124.053L28.9223 108.767C28.9223 108.767 33.1866 122.524 34.1004 124.053C34.1004 124.053 37.4509 141.173 38.0601 142.701C38.6693 144.23 38.9739 144.23 38.6693 144.841C38.3647 145.453 38.3647 146.064 38.6693 146.37C38.9739 146.675 44.7612 146.37 44.7612 146.37L43.2383 124.664L40.4969 98.6791L26.4855 94.3991L15.7204 96.2331Z" fill="#2F2E41"/>
<path d="M14.911 143.924C14.911 143.924 13.388 138.421 10.9512 142.701C8.51446 146.981 8.51446 148.51 8.51446 148.51C8.51446 148.51 4.55474 154.318 10.0374 153.707C15.5201 153.095 14.3018 150.344 14.3018 150.344C14.3018 150.344 16.4339 149.121 16.4339 148.204C16.4339 147.287 14.911 143.924 14.911 143.924Z" fill="#2F2E41"/>
<path d="M39.5831 143.313C39.5831 143.313 41.1061 137.81 43.5428 142.09C45.9796 146.37 45.9796 147.898 45.9796 147.898C45.9796 147.898 49.9393 153.707 44.4566 153.095C38.9739 152.484 40.1923 149.733 40.1923 149.733C40.1923 149.733 38.0601 148.51 38.0601 147.593C38.0601 146.675 39.5831 143.313 39.5831 143.313Z" fill="#2F2E41"/>
<path d="M25.2672 54.9627C25.2672 54.9627 25.8763 58.9369 24.0488 59.854C22.2212 60.7712 28.0085 64.134 29.5315 64.134C31.0545 64.134 33.7958 61.0769 33.7958 61.0769C33.7958 61.0769 32.2728 56.4912 32.5774 55.5741L25.2672 54.9627Z" fill="#FFB9B9"/>
<path d="M28.6177 58.0198C32.1504 58.0198 35.0142 55.1455 35.0142 51.5999C35.0142 48.0543 32.1504 45.18 28.6177 45.18C25.085 45.18 22.2212 48.0543 22.2212 51.5999C22.2212 55.1455 25.085 58.0198 28.6177 58.0198Z" fill="#FFB9B9"/>
<path d="M41.1061 64.7454L33.4915 60.115C33.4915 60.115 29.159 65.0511 24.4717 59.5483L16.4339 61.6883L17.6523 82.4765C17.6523 82.4765 15.8247 90.7306 16.4339 92.2592C17.0431 93.7877 14.9109 94.3992 15.5201 94.7049C16.1293 95.0106 15.5201 97.1506 15.5201 97.1506C15.5201 97.1506 27.3993 103.265 40.4969 98.6791L39.2785 94.7049C39.4443 94.1854 39.4754 93.632 39.3688 93.0971C39.2622 92.5621 39.0215 92.0633 38.6693 91.6478C38.6693 91.6478 39.8877 89.8135 38.3647 88.285C38.3647 88.285 38.9739 85.5336 37.4509 84.3108L37.1464 80.0308L38.0601 77.8909L41.1061 64.7454Z" fill="#CFCCE0"/>
<path d="M25.3442 48.6189C25.3442 48.6189 24.5816 50.2753 27.6319 49.6128C27.6319 49.6128 28.7758 50.2753 28.7758 49.2815C28.7758 49.2815 30.301 50.9379 30.6823 49.944C31.0636 48.9502 31.8262 50.2753 31.8262 50.2753L32.5888 48.6189L33.3514 49.6128H36.0204C36.0204 49.6128 36.783 42.9873 27.6319 43.6498C18.4808 44.3124 22.9827 54.8098 22.9827 54.8098C22.9827 54.8098 23.0564 52.9255 23.819 53.9193C24.5816 54.9132 25.3442 48.6189 25.3442 48.6189Z" fill="#2F2E41"/>
<path d="M43.8474 76.9737L44.152 83.3936C44.152 83.3936 45.3704 95.3163 42.9336 100.513V103.265C42.9336 103.265 42.3245 110.296 39.2785 109.99C36.2326 109.685 40.1923 99.9019 40.1923 99.9019L39.5831 86.4507L38.9739 78.808L43.8474 76.9737Z" fill="#FFB9B9"/>
<path d="M37.7555 65.0511L40.794 64.5556C42.9828 66.6663 44.4738 69.4001 45.0658 72.3881C45.9796 77.2794 46.2842 78.1966 46.2842 78.1966L38.9739 80.0308L35.0142 72.3881L37.7555 65.0511Z" fill="#CFCCE0"/>
<path d="M25.0016 66.8622C24.8582 66.8623 24.7208 66.9195 24.6194 67.0213C24.518 67.123 24.461 67.261 24.4608 67.4049V108.87C24.461 109.014 24.518 109.152 24.6194 109.253C24.7207 109.355 24.8582 109.412 25.0016 109.413H119.309C119.453 109.412 119.59 109.355 119.692 109.253C119.793 109.152 119.85 109.014 119.85 108.87V67.4049C119.85 67.261 119.793 67.123 119.692 67.0213C119.59 66.9195 119.453 66.8623 119.309 66.8622H25.0016Z" fill="#599CFF"/>
<path d="M106.548 75.0426H37.7634C37.5916 75.0422 37.4268 74.9735 37.3054 74.8514C37.184 74.7293 37.1158 74.5638 37.1158 74.3913C37.1158 74.2188 37.184 74.0534 37.3054 73.9313C37.4268 73.8092 37.5916 73.7404 37.7634 73.74H106.548C106.72 73.74 106.885 73.8087 107.006 73.9308C107.128 74.0529 107.196 74.2186 107.196 74.3913C107.196 74.5641 107.128 74.7297 107.006 74.8518C106.885 74.974 106.72 75.0426 106.548 75.0426Z" fill="white"/>
<path d="M106.548 80.2529H37.7634C37.5916 80.2525 37.4268 80.1837 37.3054 80.0616C37.184 79.9395 37.1158 79.7741 37.1158 79.6016C37.1158 79.4291 37.184 79.2636 37.3054 79.1415C37.4268 79.0194 37.5916 78.9506 37.7634 78.9503H106.548C106.72 78.9503 106.885 79.0189 107.006 79.141C107.128 79.2632 107.196 79.4288 107.196 79.6016C107.196 79.7743 107.128 79.94 107.006 80.0621C106.885 80.1842 106.72 80.2529 106.548 80.2529Z" fill="white"/>
<path d="M106.548 85.4631H37.7634C37.5916 85.4628 37.4268 85.394 37.3054 85.2719C37.184 85.1498 37.1158 84.9843 37.1158 84.8118C37.1158 84.6393 37.184 84.4739 37.3054 84.3518C37.4268 84.2297 37.5916 84.1609 37.7634 84.1605H106.548C106.633 84.1604 106.717 84.1771 106.796 84.2097C106.875 84.2424 106.947 84.2903 107.007 84.3508C107.068 84.4113 107.116 84.4832 107.148 84.5623C107.181 84.6414 107.198 84.7262 107.198 84.8118C107.198 84.8975 107.181 84.9823 107.148 85.0614C107.116 85.1405 107.068 85.2123 107.007 85.2728C106.947 85.3333 106.875 85.3813 106.796 85.4139C106.717 85.4466 106.633 85.4633 106.548 85.4631Z" fill="white"/>
<path d="M106.548 90.6339H37.7634C37.5916 90.6336 37.4268 90.5648 37.3054 90.4427C37.184 90.3206 37.1158 90.1551 37.1158 89.9826C37.1158 89.8101 37.184 89.6447 37.3054 89.5226C37.4268 89.4005 37.5916 89.3317 37.7634 89.3314H106.548C106.633 89.3312 106.717 89.3479 106.796 89.3805C106.875 89.4132 106.947 89.4611 107.007 89.5216C107.068 89.5821 107.116 89.654 107.148 89.7331C107.181 89.8122 107.198 89.897 107.198 89.9826C107.198 90.0683 107.181 90.1531 107.148 90.2322C107.116 90.3113 107.068 90.3831 107.007 90.4436C106.947 90.5041 106.875 90.5521 106.796 90.5847C106.717 90.6174 106.633 90.6341 106.548 90.6339Z" fill="white"/>
<path d="M106.548 95.8442H37.7634C37.5913 95.8442 37.4263 95.7756 37.3046 95.6534C37.1829 95.5313 37.1145 95.3656 37.1145 95.1929C37.1145 95.0202 37.1829 94.8545 37.3046 94.7324C37.4263 94.6102 37.5913 94.5416 37.7634 94.5416H106.548C106.72 94.5416 106.885 94.6102 107.006 94.7324C107.128 94.8545 107.196 95.0202 107.196 95.1929C107.196 95.3656 107.128 95.5313 107.006 95.6534C106.885 95.7756 106.72 95.8442 106.548 95.8442Z" fill="white"/>
<path d="M89.088 100.18C89.0389 100.18 88.9918 100.199 88.957 100.234C88.9223 100.269 88.9028 100.316 88.9027 100.366V105.296C88.9028 105.345 88.9223 105.392 88.957 105.427C88.9918 105.462 89.0389 105.481 89.088 105.482H106.27C106.319 105.481 106.366 105.462 106.401 105.427C106.436 105.392 106.455 105.345 106.456 105.296V100.366C106.455 100.316 106.436 100.269 106.401 100.234C106.366 100.199 106.319 100.18 106.27 100.18H89.088Z" fill="white"/>
<path d="M11.865 73.3052C11.865 73.3052 9.12365 84.9222 12.4742 84.9222C15.8247 84.9222 23.7442 71.7767 23.7442 71.7767C23.7442 71.7767 31.9682 67.4967 28.6177 65.9682C25.2672 64.4397 21.0028 68.4139 21.0028 68.4139L16.0824 75.2702L15.8247 71.7767L11.865 73.3052Z" fill="#FFB9B9"/>
<path d="M18.2615 63.5225L16.4339 61.6883C16.4339 61.6883 12.7788 63.8282 12.4742 65.9682C12.1696 68.1082 10.6466 74.8338 10.6466 74.8338L16.2816 75.2923L18.1092 72.5409L18.2615 63.5225Z" fill="#CFCCE0"/>
</g>
<defs>
<clipPath id="clip0">
<rect width="243" height="160" fill="white"/>
</clipPath>
</defs>
</svg>
